ffmpeg version 2022-04-14-git-ea84eb2db1-essentials_build-www.gyan.dev Copyright (c) 2000-2022 the FFmpeg developers
  built with gcc 11.2.0 (Rev10, Built by MSYS2 project)
  configuration: --enable-gpl --enable-version3 --enable-static --disable-w32threads --disable-autodetect --enable-fontconfig --enable-iconv --enable-gnutls --enable-libxml2 --enable-gmp --enable-bzlib --enable-lzma --enable-zlib --enable-libsrt --enable-libssh --enable-libzmq --enable-avisynth --enable-sdl2 --enable-libwebp --enable-libx264 --enable-libx265 --enable-libxvid --enable-libaom --enable-libopenjpeg --enable-libvpx --enable-mediafoundation --enable-libass --enable-libfreetype --enable-libfribidi --enable-libvidstab --enable-libvmaf --enable-libzimg --enable-amf --enable-cuda-llvm --enable-cuvid --enable-ffnvcodec --enable-nvdec --enable-nvenc --enable-d3d11va --enable-dxva2 --enable-libmfx --enable-libgme --enable-libopenmpt --enable-libopencore-amrwb --enable-libmp3lame --enable-libtheora --enable-libvo-amrwbenc --enable-libgsm --enable-libopencore-amrnb --enable-libopus --enable-libspeex --enable-libvorbis --enable-librubberband
  libavutil      57. 24.101 / 57. 24.101
  libavcodec     59. 26.100 / 59. 26.100
  libavformat    59. 22.100 / 59. 22.100
  libavdevice    59.  6.100 / 59.  6.100
  libavfilter     8. 31.100 /  8. 31.100
  libswscale      6.  6.100 /  6.  6.100
  libswresample   4.  6.100 /  4.  6.100
  libpostproc    56.  5.100 / 56.  5.100
Splitting the commandline.
Reading option '-v' ... matched as option 'v' (set logging level) with argument 'debug'.
Reading option '-nostdin' ... matched as option 'stdin' (enable or disable interaction on standard input) with argument 0.
Reading option '-progress' ... matched as option 'progress' (write program-readable progress information) with argument 'C:/Users/pedro/AppData/Local/Temp/KritaFFmpegProgress.vgZddT'.
Reading option '-r' ... matched as option 'r' (set frame rate (Hz value, fraction or abbreviation)) with argument '12'.
Reading option '-start_number' ... matched as AVOption 'start_number' with argument '30'.
Reading option '-i' ... matched as input url with argument 'C:/Users/pedro/DEV/jump-tales/characters/drexa/logan/gifs/frame%04d.png'.
Reading option '-i' ... matched as input url with argument 'C:/Users/pedro/DEV/jump-tales/characters/drexa/logan/gifs/palette.png'.
Reading option '-lavfi' ... matched as option 'lavfi' (create a complex filtergraph) with argument '[0:v][1:v] paletteuse'.
Reading option '-y' ... matched as option 'y' (overwrite output files) with argument '1'.
Reading option 'C:/Users/pedro/DEV/jump-tales/characters/drexa/logan/gifs/andando.gif' ... matched as output url.
Finished splitting the commandline.
Parsing a group of options: global .
Applying option v (set logging level) with argument debug.
Applying option nostdin (enable or disable interaction on standard input) with argument 0.
Applying option progress (write program-readable progress information) with argument C:/Users/pedro/AppData/Local/Temp/KritaFFmpegProgress.vgZddT.
[file @ 0000022d111dc980] Setting default whitelist 'file,crypto,data'
Applying option lavfi (create a complex filtergraph) with argument [0:v][1:v] paletteuse.
Applying option y (overwrite output files) with argument 1.
Successfully parsed a group of options.
Parsing a group of options: input url C:/Users/pedro/DEV/jump-tales/characters/drexa/logan/gifs/frame%04d.png.
Applying option r (set frame rate (Hz value, fraction or abbreviation)) with argument 12.
Successfully parsed a group of options.
Opening an input file: C:/Users/pedro/DEV/jump-tales/characters/drexa/logan/gifs/frame%04d.png.
[image2 @ 0000022d1121d000] Opening 'C:/Users/pedro/DEV/jump-tales/characters/drexa/logan/gifs/frame0030.png' for reading
[file @ 0000022d11221cc0] Setting default whitelist 'file,crypto,data'
[AVIOContext @ 0000022d11229e80] Statistics: 3522 bytes read, 0 seeks
[image2 @ 0000022d1121d000] Opening 'C:/Users/pedro/DEV/jump-tales/characters/drexa/logan/gifs/frame0031.png' for reading
[file @ 0000022d1122af80] Setting default whitelist 'file,crypto,data'
[AVIOContext @ 0000022d11229d00] Statistics: 3565 bytes read, 0 seeks
[image2 @ 0000022d1121d000] Opening 'C:/Users/pedro/DEV/jump-tales/characters/drexa/logan/gifs/frame0032.png' for reading
[file @ 0000022d1122af80] Setting default whitelist 'file,crypto,data'
[AVIOContext @ 0000022d11229d00] Statistics: 3634 bytes read, 0 seeks
[image2 @ 0000022d1121d000] Opening 'C:/Users/pedro/DEV/jump-tales/characters/drexa/logan/gifs/frame0033.png' for reading
[file @ 0000022d1122af80] Setting default whitelist 'file,crypto,data'
[AVIOContext @ 0000022d11282e80] Statistics: 3658 bytes read, 0 seeks
[image2 @ 0000022d1121d000] Opening 'C:/Users/pedro/DEV/jump-tales/characters/drexa/logan/gifs/frame0034.png' for reading
[file @ 0000022d11282e80] Setting default whitelist 'file,crypto,data'
[AVIOContext @ 0000022d112750c0] Statistics: 3643 bytes read, 0 seeks
[image2 @ 0000022d1121d000] Opening 'C:/Users/pedro/DEV/jump-tales/characters/drexa/logan/gifs/frame0035.png' for reading
[file @ 0000022d11282e80] Setting default whitelist 'file,crypto,data'
[AVIOContext @ 0000022d11276180] Statistics: 3603 bytes read, 0 seeks
[image2 @ 0000022d1121d000] Opening 'C:/Users/pedro/DEV/jump-tales/characters/drexa/logan/gifs/frame0036.png' for reading
[file @ 0000022d11282e80] Setting default whitelist 'file,crypto,data'
[AVIOContext @ 0000022d11277200] Statistics: 3487 bytes read, 0 seeks
[image2 @ 0000022d1121d000] Opening 'C:/Users/pedro/DEV/jump-tales/characters/drexa/logan/gifs/frame0037.png' for reading
[file @ 0000022d11282e80] Setting default whitelist 'file,crypto,data'
[AVIOContext @ 0000022d11278200] Statistics: 3600 bytes read, 0 seeks
[image2 @ 0000022d1121d000] Opening 'C:/Users/pedro/DEV/jump-tales/characters/drexa/logan/gifs/frame0038.png' for reading
[file @ 0000022d1128be40] Setting default whitelist 'file,crypto,data'
[AVIOContext @ 0000022d11278a40] Statistics: 3546 bytes read, 0 seeks
[image2 @ 0000022d1121d000] Opening 'C:/Users/pedro/DEV/jump-tales/characters/drexa/logan/gifs/frame0039.png' for reading
[file @ 0000022d1128be40] Setting default whitelist 'file,crypto,data'
[AVIOContext @ 0000022d11278a40] Statistics: 3592 bytes read, 0 seeks
[image2 @ 0000022d1121d000] Opening 'C:/Users/pedro/DEV/jump-tales/characters/drexa/logan/gifs/frame0040.png' for reading
[file @ 0000022d1128be40] Setting default whitelist 'file,crypto,data'
[AVIOContext @ 0000022d11278a40] Statistics: 3560 bytes read, 0 seeks
[image2 @ 0000022d1121d000] Opening 'C:/Users/pedro/DEV/jump-tales/characters/drexa/logan/gifs/frame0041.png' for reading
[file @ 0000022d1128be40] Setting default whitelist 'file,crypto,data'
[AVIOContext @ 0000022d11278a40] Statistics: 3594 bytes read, 0 seeks
Input #0, image2, from 'C:/Users/pedro/DEV/jump-tales/characters/drexa/logan/gifs/frame%04d.png':
  Duration: 00:00:00.48, start: 0.000000, bitrate: N/A
  Stream #0:0, 12, 1/25: Video: png, 1 reference frame, rgba(pc), 258x258 [SAR 3543:3543 DAR 1:1], 0/1, 25 fps, 25 tbr, 25 tbn
Successfully opened the file.
Parsing a group of options: input url C:/Users/pedro/DEV/jump-tales/characters/drexa/logan/gifs/palette.png.
Successfully parsed a group of options.
Opening an input file: C:/Users/pedro/DEV/jump-tales/characters/drexa/logan/gifs/palette.png.
[NULL @ 0000022d11280240] Opening 'C:/Users/pedro/DEV/jump-tales/characters/drexa/logan/gifs/palette.png' for reading
[file @ 0000022d1121cec0] Setting default whitelist 'file,crypto,data'
[png_pipe @ 0000022d11280240] Format png_pipe probed with size=2048 and score=99
[png_pipe @ 0000022d11280240] Before avformat_find_stream_info() pos: 0 bytes read:142 seeks:0 nb_streams:1
[png_pipe @ 0000022d11280240] After avformat_find_stream_info() pos: 142 bytes read:142 seeks:0 frames:1
Input #1, png_pipe, from 'C:/Users/pedro/DEV/jump-tales/characters/drexa/logan/gifs/palette.png':
  Duration: N/A, bitrate: N/A
  Stream #1:0, 1, 1/25: Video: png, 1 reference frame, rgba(pc), 16x16 [SAR 1:1 DAR 1:1], 0/1, 25 fps, 25 tbr, 25 tbn
Successfully opened the file.
Parsing a group of options: output url C:/Users/pedro/DEV/jump-tales/characters/drexa/logan/gifs/andando.gif.
Successfully parsed a group of options.
Opening an output file: C:/Users/pedro/DEV/jump-tales/characters/drexa/logan/gifs/andando.gif.
[file @ 0000022d11229180] Setting default whitelist 'file,crypto,data'
Successfully opened the file.
detected 4 logical cores
Stream mapping:
  Stream #0:0 (png) -> paletteuse
  Stream #1:0 (png) -> paletteuse
  paletteuse:default -> Stream #0:0 (gif)
cur_dts is invalid st:0 (0) [init:0 i_done:0 finish:0] (this is harmless if it occurs once at the start per stream)
    Last message repeated 5 times
[image2 @ 0000022d1121d000] Thread message queue blocking; consider raising the thread_queue_size option (current value: 8)
cur_dts is invalid st:0 (0) [init:0 i_done:0 finish:0] (this is harmless if it occurs once at the start per stream)
    Last message repeated 4 times
[graph 0 input from stream 0:0 @ 0000022d1143e4c0] Setting 'video_size' to value '258x258'
[graph 0 input from stream 0:0 @ 0000022d1143e4c0] Setting 'pix_fmt' to value '26'
[graph 0 input from stream 0:0 @ 0000022d1143e4c0] Setting 'time_base' to value '1/12'
[graph 0 input from stream 0:0 @ 0000022d1143e4c0] Setting 'pixel_aspect' to value '3543/3543'
[graph 0 input from stream 0:0 @ 0000022d1143e4c0] Setting 'frame_rate' to value '12/1'
[graph 0 input from stream 0:0 @ 0000022d1143e4c0] w:258 h:258 pixfmt:rgba tb:1/12 fr:12/1 sar:3543/3543
[graph 0 input from stream 1:0 @ 0000022d1143f840] Setting 'video_size' to value '16x16'
[graph 0 input from stream 1:0 @ 0000022d1143f840] Setting 'pix_fmt' to value '26'
[graph 0 input from stream 1:0 @ 0000022d1143f840] Setting 'time_base' to value '1/25'
[graph 0 input from stream 1:0 @ 0000022d1143f840] Setting 'pixel_aspect' to value '1/1'
[graph 0 input from stream 1:0 @ 0000022d1143f840] Setting 'frame_rate' to value '25/1'
[graph 0 input from stream 1:0 @ 0000022d1143f840] w:16 h:16 pixfmt:rgba tb:1/25 fr:25/1 sar:1/1
[format @ 0000022d1143fdc0] Setting 'pix_fmts' to value 'rgb8|bgr8|rgb4_byte|bgr4_byte|gray|pal8'
[auto_scale_0 @ 0000022d11440a00] w:iw h:ih flags:'' interl:0
[Parsed_paletteuse_0 @ 0000022d0f5f8c00] auto-inserting filter 'auto_scale_0' between the filter 'graph 0 input from stream 0:0' and the filter 'Parsed_paletteuse_0'
[auto_scale_1 @ 0000022d11441500] w:iw h:ih flags:'' interl:0
[Parsed_paletteuse_0 @ 0000022d0f5f8c00] auto-inserting filter 'auto_scale_1' between the filter 'graph 0 input from stream 1:0' and the filter 'Parsed_paletteuse_0'
[AVFilterGraph @ 0000022d11270a00] query_formats: 5 queried, 4 merged, 2 already done, 0 delayed
[swscaler @ 0000022d11443180] [swscaler @ 0000022d11451180] Forcing full internal H chroma due to input having non subsampled chroma
[swscaler @ 0000022d11443180] [swscaler @ 0000022d11469f40] Forcing full internal H chroma due to input having non subsampled chroma
[swscaler @ 0000022d11443180] [swscaler @ 0000022d11480f40] Forcing full internal H chroma due to input having non subsampled chroma
[swscaler @ 0000022d11443180] [swscaler @ 0000022d11497f40] Forcing full internal H chroma due to input having non subsampled chroma
[swscaler @ 0000022d11443180] [swscaler @ 0000022d124c00c0] Forcing full internal H chroma due to input having non subsampled chroma
[auto_scale_0 @ 0000022d11440a00] w:258 h:258 fmt:rgba sar:3543/3543 -> w:258 h:258 fmt:bgra sar:1/1 flags:0x0
[swscaler @ 0000022d124d9e80] [swscaler @ 0000022d124e7e40] Forcing full internal H chroma due to input having non subsampled chroma
[swscaler @ 0000022d124d9e80] [swscaler @ 0000022d124fbe80] Forcing full internal H chroma due to input having non subsampled chroma
[swscaler @ 0000022d124d9e80] [swscaler @ 0000022d1250eec0] Forcing full internal H chroma due to input having non subsampled chroma
[swscaler @ 0000022d124d9e80] [swscaler @ 0000022d12521ec0] Forcing full internal H chroma due to input having non subsampled chroma
[swscaler @ 0000022d124d9e80] [swscaler @ 0000022d12538f00] Forcing full internal H chroma due to input having non subsampled chroma
[auto_scale_1 @ 0000022d11441500] w:16 h:16 fmt:rgba sar:1/1 -> w:16 h:16 fmt:bgra sar:1/1 flags:0x0
[Parsed_paletteuse_0 @ 0000022d0f5f8c00] [framesync @ 0000022d114bb088] Selected 1/300 time base
[Parsed_paletteuse_0 @ 0000022d0f5f8c00] [framesync @ 0000022d114bb088] Sync level 2
[swscaler @ 0000022d11443180] [swscaler @ 0000022d124c00c0] Forcing full internal H chroma due to input having non subsampled chroma
[swscaler @ 0000022d11443180] [swscaler @ 0000022d11451180] Forcing full internal H chroma due to input having non subsampled chroma
[swscaler @ 0000022d11443180] [swscaler @ 0000022d1146ca40] Forcing full internal H chroma due to input having non subsampled chroma
[swscaler @ 0000022d11443180] [swscaler @ 0000022d11480b40] Forcing full internal H chroma due to input having non subsampled chroma
[swscaler @ 0000022d11443180] [swscaler @ 0000022d11494c80] Forcing full internal H chroma due to input having non subsampled chroma
[auto_scale_0 @ 0000022d11440a00] w:258 h:258 fmt:rgba sar:3543/3543 -> w:258 h:258 fmt:bgra sar:1/1 flags:0x0
[swscaler @ 0000022d11443180] [swscaler @ 0000022d11451180] Forcing full internal H chroma due to input having non subsampled chroma
[swscaler @ 0000022d11443180] [swscaler @ 0000022d124c00c0] Forcing full internal H chroma due to input having non subsampled chroma
[swscaler @ 0000022d11443180] [swscaler @ 0000022d1146ca40] Forcing full internal H chroma due to input having non subsampled chroma
[swscaler @ 0000022d11443180] [swscaler @ 0000022d11480b40] Forcing full internal H chroma due to input having non subsampled chroma
[swscaler @ 0000022d11443180] [swscaler @ 0000022d11494c80] Forcing full internal H chroma due to input having non subsampled chroma
[auto_scale_0 @ 0000022d11440a00] w:258 h:258 fmt:rgba sar:3543/3543 -> w:258 h:258 fmt:bgra sar:1/1 flags:0x0
[swscaler @ 0000022d11443180] [swscaler @ 0000022d11451180] Forcing full internal H chroma due to input having non subsampled chroma
[swscaler @ 0000022d11443180] [swscaler @ 0000022d124c00c0] Forcing full internal H chroma due to input having non subsampled chroma
[swscaler @ 0000022d11443180] [swscaler @ 0000022d1146ca40] Forcing full internal H chroma due to input having non subsampled chroma
[swscaler @ 0000022d11443180] [swscaler @ 0000022d11480b40] Forcing full internal H chroma due to input having non subsampled chroma
[swscaler @ 0000022d11443180] [swscaler @ 0000022d11494c80] Forcing full internal H chroma due to input having non subsampled chroma
[auto_scale_0 @ 0000022d11440a00] w:258 h:258 fmt:rgba sar:3543/3543 -> w:258 h:258 fmt:bgra sar:1/1 flags:0x0
[swscaler @ 0000022d124d9e80] [swscaler @ 0000022d12538f00] Forcing full internal H chroma due to input having non subsampled chroma
[swscaler @ 0000022d124d9e80] [swscaler @ 0000022d124e7e40] Forcing full internal H chroma due to input having non subsampled chroma
[swscaler @ 0000022d124d9e80] [swscaler @ 0000022d124fbe80] Forcing full internal H chroma due to input having non subsampled chroma
[swscaler @ 0000022d124d9e80] [swscaler @ 0000022d1250eec0] Forcing full internal H chroma due to input having non subsampled chroma
[swscaler @ 0000022d124d9e80] [swscaler @ 0000022d12521ec0] Forcing full internal H chroma due to input having non subsampled chroma
[auto_scale_1 @ 0000022d11441500] w:16 h:16 fmt:rgba sar:1/1 -> w:16 h:16 fmt:bgra sar:1/1 flags:0x0
[swscaler @ 0000022d124d9e80] [swscaler @ 0000022d124e7e40] Forcing full internal H chroma due to input having non subsampled chroma
[swscaler @ 0000022d124d9e80] [swscaler @ 0000022d12538f00] Forcing full internal H chroma due to input having non subsampled chroma
[swscaler @ 0000022d124d9e80] [swscaler @ 0000022d124fbe80] Forcing full internal H chroma due to input having non subsampled chroma
[swscaler @ 0000022d124d9e80] [swscaler @ 0000022d1250eec0] Forcing full internal H chroma due to input having non subsampled chroma
[swscaler @ 0000022d124d9e80] [swscaler @ 0000022d12521ec0] Forcing full internal H chroma due to input having non subsampled chroma
[auto_scale_1 @ 0000022d11441500] w:16 h:16 fmt:rgba sar:1/1 -> w:16 h:16 fmt:bgra sar:1/1 flags:0x0
[swscaler @ 0000022d124d9e80] [swscaler @ 0000022d12538f00] Forcing full internal H chroma due to input having non subsampled chroma
[swscaler @ 0000022d124d9e80] [swscaler @ 0000022d124e7e40] Forcing full internal H chroma due to input having non subsampled chroma
[swscaler @ 0000022d124d9e80] [swscaler @ 0000022d124fbe80] Forcing full internal H chroma due to input having non subsampled chroma
[swscaler @ 0000022d124d9e80] [swscaler @ 0000022d1250eec0] Forcing full internal H chroma due to input having non subsampled chroma
[swscaler @ 0000022d124d9e80] [swscaler @ 0000022d12521ec0] Forcing full internal H chroma due to input having non subsampled chroma
[auto_scale_1 @ 0000022d11441500] w:16 h:16 fmt:rgba sar:1/1 -> w:16 h:16 fmt:bgra sar:1/1 flags:0x0
Output #0, gif, to 'C:/Users/pedro/DEV/jump-tales/characters/drexa/logan/gifs/andando.gif':
  Metadata:
    encoder         : Lavf59.22.100
  Stream #0:0, 0, 1/100: Video: gif, 1 reference frame, pal8(pc, gbr/unknown/unknown, progressive), 258x258 (0x0) [SAR 1:1 DAR 1:1], 0/1, q=2-31, 200 kb/s, 12 fps, 100 tbn
    Metadata:
      encoder         : Lavc59.26.100 gif
Clipping frame in rate conversion by 0.000008
frame=    1 fps=0.0 q=-0.0 size=       0kB time=00:00:00.01 bitrate=   0.0kbits/s speed=0.549x    [gif @ 0000022d11228480] 72x219 image at pos (90;39) [area:258x258]
[gif @ 0000022d11228480] 84x105 image at pos (84;153) [area:258x258]
[gif @ 0000022d11228480] 93x102 image at pos (75;156) [area:258x258]
[gif @ 0000022d11228480] 99x219 image at pos (66;39) [area:258x258]
[gif @ 0000022d11228480] 96x108 image at pos (63;150) [area:258x258]
[gif @ 0000022d11228480] 93x111 image at pos (63;147) [area:258x258]
[gif @ 0000022d11228480] 75x219 image at pos (69;39) [area:258x258]
[gif @ 0000022d11228480] 66x111 image at pos (81;147) [area:258x258]
[gif @ 0000022d11228480] 54x108 image at pos (93;150) [area:258x258]
[gif @ 0000022d11228480] 57x219 image at pos (87;39) [area:258x258]
[gif @ 0000022d11228480] 57x105 image at pos (84;153) [area:258x258]
[Parsed_paletteuse_0 @ 0000022d0f5f8c00] [framesync @ 0000022d114bb088] Sync level 0
[out_0_0 @ 0000022d1143fc00] EOF on sink link out_0_0:default.
No more output streams to write to, finishing.
frame=   12 fps=0.0 q=-0.0 Lsize=      12kB time=00:00:00.93 bitrate= 108.9kbits/s speed=10.9x    
[AVIOContext @ 0000022d1121cbc0] Statistics: 379 bytes written, 0 seeks, 2 writeouts
video:12kB audio:0kB subtitle:0kB other streams:0kB global headers:0kB muxing overhead: 0.158165%
Input file #0 (C:/Users/pedro/DEV/jump-tales/characters/drexa/logan/gifs/frame%04d.png):
  Input stream #0:0 (video): 12 packets read (43004 bytes); 12 frames decoded; 
  Total: 12 packets (43004 bytes) demuxed
Input file #1 (C:/Users/pedro/DEV/jump-tales/characters/drexa/logan/gifs/palette.png):
  Input stream #1:0 (video): 1 packets read (142 bytes); 1 frames decoded; 
  Total: 1 packets (142 bytes) demuxed
Output file #0 (C:/Users/pedro/DEV/jump-tales/characters/drexa/logan/gifs/andando.gif):
  Output stream #0:0 (video): 12 frames encoded; 12 packets muxed (12645 bytes); 
  Total: 12 packets (12645 bytes) muxed
[AVIOContext @ 0000022d11229280] Statistics: 12665 bytes written, 0 seeks, 1 writeouts
13 frames successfully decoded, 0 decoding errors
[AVIOContext @ 0000022d1128be40] Statistics: 142 bytes read, 0 seeks
